HIERARCHY
ROOT pelvis
{
	OFFSET 0.000000 0.000000 0.000000
	CHANNELS 6 Xposition Yposition Zposition Xrotation Yrotation Zrotation
	JOINT l_hip
	{
		OFFSET 0.195211 -0.245059 -0.022011
		CHANNELS 3 Xrotation Yrotation Zrotation
		JOINT l_knee
		{
			OFFSET 0.083896 -0.996307 -0.018298
			CHANNELS 3 Xrotation Yrotation Zrotation
			JOINT l_ankle
			{
				OFFSET -0.031606 -1.048662 -0.119000
				CHANNELS 3 Xrotation Yrotation Zrotation
				JOINT l_foot
				{
					OFFSET 0.063841 -0.149483 0.312863
					CHANNELS 3 Xrotation Yrotation Zrotation
					End Site
					{
						OFFSET 0.000000 0.000000 0.000000
					}
				}
			}
		}
	}
	JOINT r_hip
	{
		OFFSET -0.188785 -0.243354 -0.013119
		CHANNELS 3 Xrotation Yrotation Zrotation
		JOINT r_knee
		{
			OFFSET -0.098896 -1.013926 -0.025127
			CHANNELS 3 Xrotation Yrotation Zrotation
			JOINT r_ankle
			{
				OFFSET 0.038376 -1.049454 -0.114596
				CHANNELS 3 Xrotation Yrotation Zrotation
				JOINT r_foot
				{
					OFFSET -0.060300 -0.126955 0.322518
					CHANNELS 3 Xrotation Yrotation Zrotation
					End Site
					{
						OFFSET 0.000000 0.000000 0.000000
					}
				}
			}
		}
	}
	JOINT spine1
	{
		OFFSET -0.006861 0.282462 -0.060688
		CHANNELS 3 Xrotation Yrotation Zrotation
		JOINT spine2
		{
			OFFSET 0.009796 0.349212 -0.004686
			CHANNELS 3 Xrotation Yrotation Zrotation
			JOINT spine3
			{
				OFFSET 0.005545 0.134239 0.076232
				CHANNELS 3 Xrotation Yrotation Zrotation
				JOINT neck
				{
					OFFSET -0.005369 0.569656 -0.136135
					CHANNELS 3 Xrotation Yrotation Zrotation
					JOINT head
					{
						OFFSET 0.009621 0.170484 0.137338
						CHANNELS 3 Xrotation Yrotation Zrotation
						End Site
						{
							OFFSET 0.000000 0.000000 0.000000
						}
					}
				}
				JOINT l_collar
				{
					OFFSET 0.205981 0.322192 -0.100872
					CHANNELS 3 Xrotation Yrotation Zrotation
					JOINT l_shoulder
					{
						OFFSET 0.233388 0.086823 -0.019950
						CHANNELS 3 Xrotation Yrotation Zrotation
						JOINT l_elbow
						{
							OFFSET 0.687295 -0.032736 -0.075278
							CHANNELS 3 Xrotation Yrotation Zrotation
							JOINT l_wrist
							{
								OFFSET 0.651109 0.024639 0.000120
								CHANNELS 3 Xrotation Yrotation Zrotation
								JOINT l_hand
								{
									OFFSET 0.217934 -0.026487 -0.036124
									CHANNELS 3 Xrotation Yrotation Zrotation
									End Site
									{
										OFFSET 0.000000 0.000000 0.000000
									}
								}
							}
						}
					}
				}
				JOINT r_collar
				{
					OFFSET -0.210726 0.316244 -0.114374
					CHANNELS 3 Xrotation Yrotation Zrotation
					JOINT r_shoulder
					{
						OFFSET -0.244017 0.089684 -0.026814
						CHANNELS 3 Xrotation Yrotation Zrotation
						JOINT r_elbow
						{
							OFFSET -0.672913 -0.035979 -0.055153
							CHANNELS 3 Xrotation Yrotation Zrotation
							JOINT r_wrist
							{
								OFFSET -0.670689 0.023586 -0.009661
								CHANNELS 3 Xrotation Yrotation Zrotation
								JOINT r_hand
								{
									OFFSET -0.219937 -0.019827 -0.028502
									CHANNELS 3 Xrotation Yrotation Zrotation
									End Site
									{
										OFFSET 0.000000 0.000000 0.000000
									}
								}
							}
						}
					}
				}
			}
		}
	}
}
MOTION
Frames: 9
Frame Time: 0.016667
0.000000 0.000000 0.000000 0.000000 0.000000 0.000000 16.781523 -1.480360 0.373061 18.968286 -17.262303 2.699494 0.000000 0.000000 0.000000 0.000000 0.000000 0.000000 -21.016905 1.777315 -2.236444 12.538735 -5.331730 1.485484 0.000000 0.000000 0.000000 0.000000 0.000000 0.000000 7.240631 -5.197917 2.203414 -0.759660 -1.021459 -0.448225 4.887068 -4.547796 -0.932769 5.391349 2.173395 2.224483 19.891927 1.376661 -0.111187 3.952981 -2.627433 -23.544313 -10.232433 -22.541300 -59.904359 -3.202261 -22.062600 -2.234094 0.000000 0.000000 0.000000 0.000000 0.000000 0.000000 1.297765 1.275443 23.969915 9.673106 19.371452 58.764569 4.204260 14.063177 1.140102 0.000000 0.000000 0.000000 0.000000 0.000000 0.000000 
0.000000 0.000000 0.000000 0.000000 0.000000 0.000000 15.254663 -1.477765 0.686574 24.066580 -16.396258 2.187865 0.000000 0.000000 0.000000 0.000000 0.000000 0.000000 -21.146607 1.400540 -1.838281 15.344559 -4.968385 1.908345 0.000000 0.000000 0.000000 0.000000 0.000000 0.000000 7.452220 -4.842552 2.557181 -0.677878 -0.742689 -0.417854 4.856026 -4.461598 -1.004167 5.595483 1.804337 2.359817 20.149915 1.566695 -0.336400 4.151262 -2.186669 -23.887348 -9.734998 -21.522839 -60.240762 -2.570836 -20.262326 -1.712300 0.000000 0.000000 0.000000 0.000000 0.000000 0.000000 1.054492 1.721651 23.908760 8.711773 19.687879 58.612475 4.359293 13.603604 1.083315 0.000000 0.000000 0.000000 0.000000 0.000000 0.000000 
0.000000 0.000000 0.000000 0.000000 0.000000 0.000000 12.912781 -1.340270 1.384250 29.202911 -15.078480 1.318655 0.000000 0.000000 0.000000 0.000000 0.000000 0.000000 -21.355790 1.169288 -1.330454 17.871122 -4.685470 2.284114 0.000000 0.000000 0.000000 0.000000 0.000000 0.000000 7.596530 -4.528473 2.750966 -0.808631 -0.562723 -0.220035 4.690087 -4.265510 -0.854771 5.769843 1.656068 2.411056 20.806685 2.007502 -0.345458 4.378045 -1.749588 -24.088495 -9.128270 -20.597519 -60.813311 -3.294581 -18.289555 -1.715770 0.000000 0.000000 0.000000 0.000000 0.000000 0.000000 1.057073 2.155262 23.806624 7.648481 20.076782 58.405046 4.489849 13.287518 0.720835 0.000000 0.000000 0.000000 0.000000 0.000000 0.000000 
0.000000 0.000000 0.000000 0.000000 0.000000 0.000000 10.424077 -0.852328 1.858257 34.245409 -13.607043 0.654241 0.000000 0.000000 0.000000 0.000000 0.000000 0.000000 -20.722395 0.769625 -0.830545 18.691697 -4.188670 2.634758 0.000000 0.000000 0.000000 0.000000 0.000000 0.000000 7.871761 -4.177477 3.145772 -0.993701 -0.357950 -0.249240 4.460111 -3.973168 -0.823583 6.088174 1.068228 2.340649 20.740460 2.496039 -0.097130 4.618578 -1.212510 -24.327703 -8.281556 -19.587888 -61.403424 -3.233501 -16.790125 -0.950632 0.000000 0.000000 0.000000 0.000000 0.000000 0.000000 1.049238 2.691225 23.526269 6.511216 20.439703 58.421835 4.675532 13.007159 0.591937 0.000000 0.000000 0.000000 0.000000 0.000000 0.000000 
0.000000 0.000000 0.000000 0.000000 0.000000 0.000000 8.709948 -0.412880 1.948304 39.082188 -12.450873 0.650525 0.000000 0.000000 0.000000 0.000000 0.000000 0.000000 -18.770056 0.156513 -0.431722 18.333810 -3.589438 2.721023 0.000000 0.000000 0.000000 0.000000 0.000000 0.000000 8.379969 -3.624422 3.637652 -0.684564 -0.209264 -0.359263 4.374868 -3.663604 -0.763333 6.249024 0.318785 2.213821 20.273729 2.956615 0.135547 4.759371 -0.939709 -24.246119 -7.785002 -18.619662 -62.027634 -3.624892 -15.249993 -0.947899 0.000000 0.000000 0.000000 0.000000 0.000000 0.000000 0.890633 3.297278 22.928172 5.365978 20.639579 58.553656 4.220092 13.293551 0.247829 0.000000 0.000000 0.000000 0.000000 0.000000 0.000000 
0.000000 0.000000 0.000000 0.000000 0.000000 0.000000 7.175296 -0.116116 1.761248 43.515170 -11.037138 0.825205 0.000000 0.000000 0.000000 0.000000 0.000000 0.000000 -16.486799 -0.088807 0.054012 17.764754 -2.791569 2.428626 0.000000 0.000000 0.000000 0.000000 0.000000 0.000000 8.572765 -3.133429 3.784099 -0.281950 -0.169936 -0.413536 4.428759 -3.400485 -0.671351 6.442509 -0.229058 2.133980 20.062181 3.329308 0.135695 5.041876 -0.932018 -24.278174 -7.155065 -17.520183 -62.218150 -3.966455 -13.818670 -0.953307 0.000000 0.000000 0.000000 0.000000 0.000000 0.000000 0.681171 4.151537 22.478308 4.447457 20.920251 58.345144 3.454864 13.479253 0.143853 0.000000 0.000000 0.000000 0.000000 0.000000 0.000000 
0.000000 0.000000 0.000000 0.000000 0.000000 0.000000 5.084519 0.032910 1.768122 47.992824 -9.258233 0.853276 0.000000 0.000000 0.000000 0.000000 0.000000 0.000000 -14.558389 -0.394272 0.457165 17.459723 -2.223316 2.231762 0.000000 0.000000 0.000000 0.000000 0.000000 0.000000 9.111741 -2.650502 3.706273 -0.339356 -0.201042 -0.369615 4.470502 -3.227711 -0.507741 6.352883 -0.801945 2.453181 19.773965 3.333404 0.150577 5.257079 -0.501631 -24.583419 -6.593947 -16.277380 -62.320109 -3.666747 -12.824768 -0.779788 0.000000 0.000000 0.000000 0.000000 0.000000 0.000000 0.389322 4.584341 22.348979 3.810392 21.188363 57.903029 3.401758 14.220005 -0.096094 0.000000 0.000000 0.000000 0.000000 0.000000 0.000000 
0.000000 0.000000 0.000000 0.000000 0.000000 0.000000 2.887414 -0.074455 1.878241 51.481901 -7.438784 0.569160 0.000000 0.000000 0.000000 0.000000 0.000000 0.000000 -13.007448 -0.609855 0.600414 17.173215 -2.050985 2.237092 0.000000 0.000000 0.000000 0.000000 0.000000 0.000000 9.742671 -2.257197 3.551456 -0.726594 -0.362623 -0.236227 4.408278 -3.108789 -0.395112 6.090366 -1.118161 2.904544 20.019467 3.309944 -0.004007 5.494008 -0.271089 -25.026117 -5.679876 -15.432012 -61.775346 -3.131610 -12.155363 -0.920230 0.000000 0.000000 0.000000 0.000000 0.000000 0.000000 0.059018 4.885006 22.519078 3.261913 21.549483 56.892485 3.106226 14.844668 -0.195181 0.000000 0.000000 0.000000 0.000000 0.000000 0.000000 
0.000000 0.000000 0.000000 0.000000 0.000000 0.000000 0.443583 -0.521958 1.850592 54.311811 -5.327071 -0.312195 0.000000 0.000000 0.000000 0.000000 0.000000 0.000000 -11.186397 -0.791793 0.812145 15.955773 -1.610103 2.059262 0.000000 0.000000 0.000000 0.000000 0.000000 0.000000 9.851351 -1.564870 3.442631 -0.872154 -0.460984 -0.158166 4.524732 -2.896984 -0.398223 5.968378 -1.437000 3.174009 20.114700 3.049783 -0.009520 5.646465 0.004459 -25.248268 -4.908763 -14.579360 -61.522630 -2.680859 -11.644996 -0.962138 0.000000 0.000000 0.000000 0.000000 0.000000 0.000000 -0.187550 5.059381 22.661442 2.677420 21.934791 56.220945 3.530800 15.404260 -0.874878 0.000000 0.000000 0.000000 0.000000 0.000000 0.000000 
